<?xml version="1.0" encoding="UTF-8" standalone="no"?>
<!-- Created with Inkscape (http://www.inkscape.org/) -->

<svg
   xmlns:dc="http://purl.org/dc/elements/1.1/"
   xmlns:cc="http://creativecommons.org/ns#"
   xmlns:rdf="http://www.w3.org/1999/02/22-rdf-syntax-ns#"
   xmlns:svg="http://www.w3.org/2000/svg"
   xmlns="http://www.w3.org/2000/svg"
   xmlns:sodipodi="http://sodipodi.sourceforge.net/DTD/sodipodi-0.dtd"
   xmlns:inkscape="http://www.inkscape.org/namespaces/inkscape"
   width="217.62308"
   height="210.0695"
   id="svg2"
   version="1.1"
   inkscape:version="0.48.4 r9939"
   sodipodi:docname="dragon.svg">
  <defs
     id="defs4">
    <marker
       inkscape:stockid="DotM"
       orient="auto"
       refY="0"
       refX="0"
       id="DotM"
       style="overflow:visible">
      <path
         id="path3823"
         d="m -2.5,-1 c 0,2.76 -2.24,5 -5,5 -2.76,0 -5,-2.24 -5,-5 0,-2.76 2.24,-5 5,-5 2.76,0 5,2.24 5,5 z"
         style="fill-rule:evenodd;stroke:#000000;stroke-width:1pt"
         transform="matrix(0.4,0,0,0.4,2.96,0.4)"
         inkscape:connector-curvature="0" />
    </marker>
    <marker
       inkscape:stockid="DotS"
       orient="auto"
       refY="0"
       refX="0"
       id="DotS"
       style="overflow:visible">
      <path
         id="path3826"
         d="m -2.5,-1 c 0,2.76 -2.24,5 -5,5 -2.76,0 -5,-2.24 -5,-5 0,-2.76 2.24,-5 5,-5 2.76,0 5,2.24 5,5 z"
         style="fill-rule:evenodd;stroke:#000000;stroke-width:1pt"
         transform="matrix(0.2,0,0,0.2,1.48,0.2)"
         inkscape:connector-curvature="0" />
    </marker>
    <marker
       inkscape:stockid="DotM"
       orient="auto"
       refY="0"
       refX="0"
       id="DotM-3"
       style="overflow:visible">
      <path
         inkscape:connector-curvature="0"
         id="path3823-2"
         d="m -2.5,-1 c 0,2.76 -2.24,5 -5,5 -2.76,0 -5,-2.24 -5,-5 0,-2.76 2.24,-5 5,-5 2.76,0 5,2.24 5,5 z"
         style="fill-rule:evenodd;stroke:#000000;stroke-width:1pt"
         transform="matrix(0.4,0,0,0.4,2.96,0.4)" />
    </marker>
    <marker
       inkscape:stockid="DotM"
       orient="auto"
       refY="0"
       refX="0"
       id="DotM-0"
       style="overflow:visible">
      <path
         inkscape:connector-curvature="0"
         id="path3823-6"
         d="m -2.5,-1 c 0,2.76 -2.24,5 -5,5 -2.76,0 -5,-2.24 -5,-5 0,-2.76 2.24,-5 5,-5 2.76,0 5,2.24 5,5 z"
         style="fill-rule:evenodd;stroke:#000000;stroke-width:1pt"
         transform="matrix(0.4,0,0,0.4,2.96,0.4)" />
    </marker>
    <marker
       inkscape:stockid="DotM"
       orient="auto"
       refY="0"
       refX="0"
       id="DotM-7"
       style="overflow:visible">
      <path
         inkscape:connector-curvature="0"
         id="path3823-4"
         d="m -2.5,-1 c 0,2.76 -2.24,5 -5,5 -2.76,0 -5,-2.24 -5,-5 0,-2.76 2.24,-5 5,-5 2.76,0 5,2.24 5,5 z"
         style="fill-rule:evenodd;stroke:#000000;stroke-width:1pt"
         transform="matrix(0.4,0,0,0.4,2.96,0.4)" />
    </marker>
    <marker
       inkscape:stockid="DotM"
       orient="auto"
       refY="0"
       refX="0"
       id="DotM-8"
       style="overflow:visible">
      <path
         inkscape:connector-curvature="0"
         id="path3823-0"
         d="m -2.5,-1 c 0,2.76 -2.24,5 -5,5 -2.76,0 -5,-2.24 -5,-5 0,-2.76 2.24,-5 5,-5 2.76,0 5,2.24 5,5 z"
         style="fill-rule:evenodd;stroke:#000000;stroke-width:1pt"
         transform="matrix(0.4,0,0,0.4,2.96,0.4)" />
    </marker>
    <marker
       inkscape:stockid="DotM"
       orient="auto"
       refY="0"
       refX="0"
       id="DotM-1"
       style="overflow:visible">
      <path
         inkscape:connector-curvature="0"
         id="path3823-60"
         d="m -2.5,-1 c 0,2.76 -2.24,5 -5,5 -2.76,0 -5,-2.24 -5,-5 0,-2.76 2.24,-5 5,-5 2.76,0 5,2.24 5,5 z"
         style="fill-rule:evenodd;stroke:#000000;stroke-width:1pt"
         transform="matrix(0.4,0,0,0.4,2.96,0.4)" />
    </marker>
  </defs>
  <sodipodi:namedview
     id="base"
     pagecolor="#ffffff"
     bordercolor="#666666"
     borderopacity="1.0"
     inkscape:pageopacity="0.0"
     inkscape:pageshadow="2"
     inkscape:zoom="15.839192"
     inkscape:cx="9.9645307"
     inkscape:cy="30.719557"
     inkscape:document-units="px"
     inkscape:current-layer="layer1"
     showgrid="false"
     fit-margin-top="0"
     fit-margin-left="0"
     fit-margin-right="0"
     fit-margin-bottom="0"
     inkscape:window-width="1364"
     inkscape:window-height="710"
     inkscape:window-x="1"
     inkscape:window-y="1"
     inkscape:window-maximized="1">
    <inkscape:grid
       type="xygrid"
       id="grid5219"
       empspacing="5"
       visible="true"
       enabled="true"
       snapvisiblegridlinesonly="true"
       originx="-104.3125px"
       originy="-655.20693px" />
  </sodipodi:namedview>
  <metadata
     id="metadata7">
    <rdf:RDF>
      <cc:Work
         rdf:about="">
        <dc:format>image/svg+xml</dc:format>
        <dc:type
           rdf:resource="http://purl.org/dc/dcmitype/StillImage" />
        <dc:title />
      </cc:Work>
    </rdf:RDF>
  </metadata>
  <g
     inkscape:label="Layer 1"
     inkscape:groupmode="layer"
     id="layer1"
     transform="translate(-104.3125,-187.08576)">
    <path
       style="fill:#000000;stroke:#000000;stroke-width:0.77576315px;stroke-linecap:butt;stroke-linejoin:miter;stroke-opacity:1;marker-start:url(#DotM)"
       d="m 147.35513,193.73252 c 21.70999,0 21.70999,0 21.70999,0"
       id="path2985"
       inkscape:connector-curvature="0" />
    <text
       xml:space="preserve"
       style="font-size:14px;font-style:normal;font-variant:normal;font-weight:bold;font-stretch:normal;line-height:125%;letter-spacing:0px;word-spacing:0px;fill:#000000;fill-opacity:1;stroke:none;font-family:Courier;-inkscape-font-specification:Courier Bold"
       x="197.9899"
       y="195.24776"
       id="text4567"
       sodipodi:linespacing="125%"><tspan
         sodipodi:role="line"
         id="tspan4569"
         x="197.9899"
         y="195.24776">F</tspan></text>
    <path
       style="fill:#000000;stroke:#000000;stroke-width:0.77576315px;stroke-linecap:butt;stroke-linejoin:miter;stroke-opacity:1;marker-start:none"
       d="m 168.6452,237.31801 c 0.14922,-21.70946 0.14922,-21.70946 0.14922,-21.70946"
       id="path2985-1"
       inkscape:connector-curvature="0" />
    <path
       style="fill:#000000;stroke:#000000;stroke-width:0.77576315px;stroke-linecap:butt;stroke-linejoin:miter;stroke-opacity:1;marker-start:url(#DotM)"
       d="m 147.27517,236.95606 c 21.70999,0 21.70999,0 21.70999,0"
       id="path2985-5"
       inkscape:connector-curvature="0" />
    <text
       xml:space="preserve"
       style="font-size:14px;font-style:normal;font-variant:normal;font-weight:bold;font-stretch:normal;line-height:125%;letter-spacing:0px;word-spacing:0px;fill:#000000;fill-opacity:1;stroke:none;font-family:Courier;-inkscape-font-specification:Courier Bold"
       x="195.66599"
       y="230.25935"
       id="text4567-9"
       sodipodi:linespacing="125%"><tspan
         sodipodi:role="line"
         id="tspan4569-0"
         x="195.66599"
         y="230.25935">FLF</tspan></text>
    <path
       style="fill:#000000;stroke:#000000;stroke-width:0.77576315px;stroke-linecap:butt;stroke-linejoin:miter;stroke-opacity:1;marker-start:url(#DotM)"
       d="m 146.98171,314.98207 c 21.71,0 21.71,0 21.71,0"
       id="path2985-5-5"
       inkscape:connector-curvature="0" />
    <path
       style="fill:#000000;stroke:#000000;stroke-width:0.77576315px;stroke-linecap:butt;stroke-linejoin:miter;stroke-opacity:1;marker-start:none"
       d="m 147.10326,293.88004 c 21.71,0 21.71,0 21.71,0"
       id="path2985-5-5-2"
       inkscape:connector-curvature="0" />
    <text
       xml:space="preserve"
       style="font-size:14px;font-style:normal;font-variant:normal;font-weight:bold;font-stretch:normal;line-height:125%;letter-spacing:0px;word-spacing:0px;fill:#000000;fill-opacity:1;stroke:none;font-family:Courier;-inkscape-font-specification:Courier Bold"
       x="196.56696"
       y="295.0759"
       id="text4567-9-0"
       sodipodi:linespacing="125%"><tspan
         sodipodi:role="line"
         id="tspan4569-0-1"
         x="196.56696"
         y="295.0759">FLFLFRF</tspan></text>
    <path
       style="fill:#000000;stroke:#000000;stroke-width:0.77576315px;stroke-linecap:butt;stroke-linejoin:miter;stroke-opacity:1;marker-start:none"
       d="m 168.45101,395.77183 c 0.1236,-21.70964 0.1236,-21.70964 0.1236,-21.70964"
       id="path2985-1-3-9"
       inkscape:connector-curvature="0" />
    <path
       style="fill:#000000;stroke:#000000;stroke-width:0.77576315px;stroke-linecap:butt;stroke-linejoin:miter;stroke-opacity:1;marker-start:url(#DotM)"
       d="m 147.04202,395.40979 c 21.71,0 21.71,0 21.71,0"
       id="path2985-5-5-5"
       inkscape:connector-curvature="0" />
    <path
       style="fill:#000000;stroke:#000000;stroke-width:0.77576315px;stroke-linecap:butt;stroke-linejoin:miter;stroke-opacity:1;marker-start:none"
       d="m 147.02198,374.40787 c 21.71,0 21.71,0 21.71,0"
       id="path2985-5-5-2-1"
       inkscape:connector-curvature="0" />
    <text
       xml:space="preserve"
       style="font-size:14px;font-style:normal;font-variant:normal;font-weight:bold;font-stretch:normal;line-height:125%;letter-spacing:0px;word-spacing:0px;fill:#000000;fill-opacity:1;stroke:none;font-family:Courier;-inkscape-font-specification:Courier Bold"
       x="196.60014"
       y="377.82877"
       id="text4567-9-0-0"
       sodipodi:linespacing="125%"><tspan
         sodipodi:role="line"
         id="tspan4569-0-1-1"
         x="196.60014"
         y="377.82877">FLFLFRFLFLFRFRF</tspan></text>
    <path
       style="fill:#000000;stroke:#000000;stroke-width:0.77576315px;stroke-linecap:butt;stroke-linejoin:miter;stroke-opacity:1;marker-start:none"
       d="m 126.18072,353.08729 c 21.71,0 21.71,0 21.71,0"
       id="path2985-5-5-2-1-7"
       inkscape:connector-curvature="0" />
    <path
       style="fill:#000000;stroke:#000000;stroke-width:0.77576315px;stroke-linecap:butt;stroke-linejoin:miter;stroke-opacity:1;marker-start:none"
       d="m 104.76044,374.09559 c 21.71,0 21.71,0 21.71,0"
       id="path2985-5-5-2-1-9"
       inkscape:connector-curvature="0" />
    <path
       style="fill:#000000;stroke:#000000;stroke-width:0.77576315px;stroke-linecap:butt;stroke-linejoin:miter;stroke-opacity:1;marker-start:none"
       d="m 104.94291,374.46715 c 0.0428,-21.70994 0.0428,-21.70994 0.0428,-21.70994"
       id="path2985-1-3-4-5-8"
       inkscape:connector-curvature="0" />
    <path
       style="fill:#000000;stroke:#000000;stroke-width:0.77576315px;stroke-linecap:butt;stroke-linejoin:miter;stroke-opacity:1;marker-start:none"
       d="m 147.49821,293.70798 c 0.14922,-21.70946 0.14922,-21.70946 0.14922,-21.70946"
       id="path2985-1-31"
       inkscape:connector-curvature="0" />
    <path
       style="fill:#000000;stroke:#000000;stroke-width:0.77576315px;stroke-linecap:butt;stroke-linejoin:miter;stroke-opacity:1;marker-start:none"
       d="m 168.371,315.29617 c 0.14922,-21.70946 0.14922,-21.70946 0.14922,-21.70946"
       id="path2985-1-9"
       inkscape:connector-curvature="0" />
    <path
       style="fill:#000000;stroke:#000000;stroke-width:0.77576315px;stroke-linecap:butt;stroke-linejoin:miter;stroke-opacity:1;marker-start:none"
       d="m 147.40574,374.62067 c 0.1236,-21.70964 0.1236,-21.70964 0.1236,-21.70964"
       id="path2985-1-3-9-9"
       inkscape:connector-curvature="0" />
    <path
       style="fill:#000000;stroke:#000000;stroke-width:0.77576315px;stroke-linecap:butt;stroke-linejoin:miter;stroke-opacity:1;marker-start:none"
       d="m 126.36046,374.47909 c 0.1236,-21.70964 0.1236,-21.70964 0.1236,-21.70964"
       id="path2985-1-3-9-9-6"
       inkscape:connector-curvature="0" />
  </g>
</svg>
